<?xml version="1.0" encoding="UTF-8"?>
<svg id="Layer_2" data-name="Layer 2" xmlns="http://www.w3.org/2000/svg" viewBox="0 0 2285.71 739">
  <defs>
    <style>
      .cls-1 {
        fill: #351ddb;
      }

      .cls-2 {
        opacity: 0;
      }

      .cls-3 {
        fill: #db991d;
      }

      .cls-4 {
        fill: #16151f;
      }
    </style>
  </defs>
  <g id="Layer_1-2" data-name="Layer 1">
    <g>
      <rect class="cls-2" width="2285.71" height="739"/>
      <path class="cls-4" d="m756.46,452.04c0-4.81-5.61-7.28-9.27-4.16-9.06,7.72-22.69,12.03-38.14,12.03-56.89,0-76.55-43.54-76.55-88.84,0-53.73,33.71-89.89,75.5-89.89,16.16,0,29.03,4.64,39.05,14.22,3.54,3.38,9.41.83,9.41-4.07h0c0-3.09,2.5-5.59,5.59-5.59h34.47c3.09,0,5.59,2.5,5.59,5.59v168.93c0,51.97-37.92,80.06-86.03,80.06s-80.31-25.27-83.36-66.34c-.24-3.24,2.34-6,5.58-6h31.45c2.8,0,5.19,2.07,5.53,4.85,2.19,17.77,16.65,28.16,37.63,28.16,24.23,0,43.54-14.4,43.54-37.22v-11.73Zm1.4-75.7c0-37.57-12.99-55.48-38.98-55.48s-38.98,17.21-38.98,52.67c0,30.9,16.5,50.57,38.98,50.57s38.98-18.61,38.98-47.76Z"/>
      <path class="cls-4" d="m870.09,384.06c-3.42,0-6.03,3.05-5.53,6.43,3.33,22.3,17.42,36.41,37.98,36.41,13.37,0,25.29-6.06,29.76-16.08.89-2,2.94-3.24,5.13-3.24h35.22c3.94,0,6.66,3.98,5.2,7.64-12.17,30.69-39.08,47.84-73.21,47.84-57.59,0-86.38-31.6-86.38-94.11,0-53.38,30.55-87.79,83.57-87.79s79.51,32.5,81.05,97.19c.07,3.13-2.46,5.7-5.59,5.7h-107.21Zm59.73-28.79c3.41,0,6.03-3.03,5.54-6.4-3.11-21.28-18.58-31.52-34.92-31.52s-30.4,11.46-34.24,31.27c-.67,3.45,1.98,6.66,5.49,6.66h58.13Z"/>
      <path class="cls-4" d="m998.75,452.92v-224.8c0-3.09,2.5-5.59,5.59-5.59h34.47c3.09,0,5.59,2.5,5.59,5.59v224.8c0,3.09-2.5,5.59-5.59,5.59h-34.47c-3.09,0-5.59-2.5-5.59-5.59Z"/>
      <path class="cls-4" d="m1170.67,454.19c-.08-.37-.17-.74-.24-1.12-.84-4-5.53-5.76-8.81-3.32-10.99,8.16-26.37,13.32-44.89,13.32-39.33,0-57.59-19.31-57.59-47.41,0-49.86,33.36-55.48,79.36-61.8,22.83-3.16,29.15-7.73,29.15-19.66,0-11.24-11.24-17.91-29.15-17.91s-27.39,8.3-30.45,21.28c-.6,2.54-2.83,4.36-5.44,4.36h-31.96c-3.26,0-5.85-2.78-5.58-6.03,2.76-32.56,23.23-54.72,75.54-54.72s73.74,24.58,73.74,68.12v103.62c0,3.09-2.5,5.59-5.59,5.59h-32.64c-2.6,0-4.87-1.78-5.44-4.32Zm-2.16-70.23c.07-4.01-3.96-6.75-7.7-5.28-4.91,1.93-11.76,3.54-21.61,5.38-25.99,4.92-34.41,12.29-34.41,27.04,0,12.99,7.73,19.31,22.12,19.31,23.53,0,41.08-17.21,41.44-37.57l.16-8.89Z"/>
      <path class="cls-4" d="m1442.56,458.51c-3.09,0-5.59-2.5-5.59-5.59v-99.05c0-20.72-10.89-35.47-27.04-35.47s-29.15,15.8-29.15,36.87v97.65c0,3.09-2.5,5.59-5.59,5.59h-34.47c-3.09,0-5.59-2.5-5.59-5.59v-98.35c0-27.74-7.37-34.76-27.39-34.76-18.26,0-27.74,11.24-27.74,33.71v99.41c0,3.09-2.5,5.59-5.59,5.59h-34.47c-3.09,0-5.59-2.5-5.59-5.59v-161.59c0-3.09,2.5-5.59,5.59-5.59h31.67c3.09,0,5.59,2.5,5.59,5.59v1.49c0,5.07,6.26,7.57,9.66,3.82,10.49-11.53,23.83-15.46,40.9-15.46,20.6,0,31.78,5.65,43.2,20.5,2.32,3.01,6.89,2.96,9.04-.18,9.6-14.01,23.71-20.32,42.57-20.32,34.76,0,58.99,25.28,58.99,57.59v114.15c0,3.09-2.5,5.59-5.59,5.59h-33.42Z"/>
      <path class="cls-4" d="m1606.09,454.19c-.08-.37-.17-.74-.24-1.12-.84-4-5.53-5.76-8.81-3.32-10.99,8.16-26.37,13.32-44.89,13.32-39.33,0-57.59-19.31-57.59-47.41,0-49.86,33.36-55.48,79.36-61.8,22.83-3.16,29.15-7.73,29.15-19.66,0-11.24-11.24-17.91-29.15-17.91s-27.39,8.3-30.45,21.28c-.6,2.54-2.83,4.36-5.44,4.36h-31.96c-3.26,0-5.85-2.78-5.58-6.03,2.76-32.56,23.23-54.72,75.54-54.72s73.74,24.58,73.74,68.12v103.62c0,3.09-2.5,5.59-5.59,5.59h-32.64c-2.6,0-4.87-1.78-5.44-4.32Zm-2.16-70.23c.07-4.01-3.96-6.75-7.7-5.28-4.91,1.93-11.76,3.54-21.61,5.38-25.98,4.92-34.41,12.29-34.41,27.04,0,12.99,7.72,19.31,22.12,19.31,23.53,0,41.08-17.21,41.44-37.57l.16-8.89Z"/>
      <path class="cls-4" d="m1785.97,458.51c-3.09,0-5.59-2.5-5.59-5.59v-99.05c0-26.69-7.73-34.06-29.5-34.06-23.88,0-35.47,13.34-35.47,39.68v93.44c0,3.09-2.5,5.59-5.59,5.59h-34.47c-3.09,0-5.59-2.5-5.59-5.59v-161.59c0-3.09,2.5-5.59,5.59-5.59h32.37c3.09,0,5.59,2.5,5.59,5.59v2.66c0,4.98,6.06,7.51,9.54,3.94,10.67-10.93,25.66-16.75,46.29-16.75,33.01,0,57.24,20.02,57.24,57.59v114.15c0,3.09-2.5,5.59-5.59,5.59h-34.83Z"/>
      <path class="cls-4" d="m1966.84,452.04c0-4.81-5.61-7.28-9.27-4.16-9.06,7.72-22.69,12.03-38.14,12.03-56.89,0-76.55-43.54-76.55-88.84,0-53.73,33.71-89.89,75.5-89.89,16.16,0,29.03,4.64,39.05,14.22,3.54,3.38,9.41.83,9.41-4.07h0c0-3.09,2.5-5.59,5.59-5.59h34.47c3.09,0,5.59,2.5,5.59,5.59v168.93c0,51.97-37.92,80.06-86.03,80.06s-80.31-25.27-83.36-66.34c-.24-3.24,2.34-6,5.58-6h31.45c2.8,0,5.19,2.07,5.53,4.85,2.19,17.77,16.65,28.16,37.63,28.16,24.23,0,43.54-14.4,43.54-37.22v-11.73Zm1.41-75.7c0-37.57-12.99-55.48-38.98-55.48s-38.98,17.21-38.98,52.67c0,30.9,16.5,50.57,38.98,50.57s38.98-18.61,38.98-47.76Z"/>
      <path class="cls-3" d="m374.49,121.07c-.69-.01-1.37-.01-2.05-.01h-1.3c-48.5.26-75.96,56.01-46.57,94.58,21.45,28.16,36.81,61.2,44.13,97.16.92,4.51,7.32,4.51,8.24,0,7.32-35.98,22.69-69.04,44.16-97.2,29.38-38.55,1.86-94.12-46.6-94.53Zm28.55,80.77c-10.96,14.38-20.41,29.94-28.19,46.28-.82,1.71-3.26,1.71-4.08,0-7.77-16.33-17.21-31.86-28.16-46.23-8.47-11.11-9.82-25.26-3.63-37.87,6.22-12.61,18.28-20.19,32.27-20.27h1.18c.62,0,1.25,0,1.87.01,14.07.11,26.17,7.75,32.39,20.43,6.14,12.54,4.78,26.61-3.65,37.65Z"/>
      <path class="cls-1" d="m394.02,194.97c-7.42,9.74-14.19,19.99-20.23,30.65-.43.77-1.52.77-1.96,0-6.04-10.64-12.79-20.88-20.2-30.6-8.36-10.97-4.51-21.83-2.46-25.98,2.04-4.16,8.3-13.86,22.14-13.94h1.12c.59,0,1.18,0,1.77.01,13.95.11,20.25,9.88,22.3,14.08,2.02,4.12,5.82,14.89-2.48,25.79Z"/>
      <path class="cls-3" d="m356.63,348.4c-11.47-12.69-24.05-24.15-37.62-34.27-22.73-16.96-48.21-30.14-75.75-39.06-26.26-8.51-53.59-12.83-81.2-12.83h-.17c-1.7,0-3.26-.42-4.59-1.15-2.79-1.51-4.67-4.36-5.01-7.46-.22-1.92.16-3.94,1.26-5.82,4.22-7.2,8.8-14.21,13.73-20.96,10.23-14.04,21.96-27.07,34.88-38.71.12-.11.26-.23.39-.34,2.63-2.36,5.43-4.45,8.36-6.24,21-12.93,48.45-11.31,67.83,4.86.54.45,1.08.91,1.6,1.38.11.1.24.22.36.33,12.94,11.66,24.71,24.72,34.95,38.8,8.3,11.39,15.6,23.41,21.81,35.95,5.21,10.47,9.67,21.29,13.34,32.43,5.46,16.47,9.15,33.43,11.07,50.7.33,2.92-3.27,4.57-5.24,2.39Z"/>
      <path class="cls-3" d="m346.91,355.85c1.98,2.17.05,5.62-2.82,5.02-17.71-3.72-35.71-5.61-53.78-5.61-27.52,0-54.79,4.34-81.05,12.91-26.11,8.51-51.08,21.3-73.37,37.49-6,4.36-14.48.65-15.21-6.73-.82-8.28-1.23-16.62-1.23-24.97,0-17.53,1.82-35.02,5.41-51.99,2.02-9.55,4.61-19,7.75-28.27,1.45-4.29,3.02-8.53,4.7-12.73,1.37-3.41,4.59-5.74,8.26-5.98h.05c5.49-.36,10.98-.54,16.46-.54,26.33,0,52.39,4.11,77.45,12.23,24.62,7.96,47.7,19.63,68.63,34.66,14.09,10.12,27.07,21.67,38.77,34.51Z"/>
      <path class="cls-3" d="m340.57,372.59c2.87.59,3.34,4.53.66,5.72-41.79,18.67-77.65,47.74-104.77,85.16-16.13,22.23-28.8,47.24-37.32,73.44-2.31,7.08-11.36,8.98-16.31,3.43-5.5-6.17-10.7-12.6-15.55-19.26-10.31-14.16-19.15-29.43-26.26-45.38-5.82-13.03-10.52-26.62-14.01-40.49-.9-3.56.33-7.33,3.15-9.68,10.98-9.14,22.78-17.37,35.18-24.51,15.09-8.71,31.14-15.87,47.7-21.26,25.05-8.17,51.04-12.31,77.28-12.31,16.88,0,33.7,1.72,50.26,5.13Z"/>
      <path class="cls-3" d="m327.47,606.03c1.17,3.58.15,7.12-2.09,9.54-2.16,2.33-5.43,3.6-8.98,2.84-19.07-4.11-37.49-10.44-55.11-18.92-5.68-2.73-11.3-5.71-16.81-8.89-12.35-7.15-24.14-15.39-35.14-24.57-2.82-2.36-4.04-6.13-3.14-9.69,3.52-13.84,8.22-27.42,14.04-40.48,7.1-15.92,15.87-31.13,26.09-45.22,15.19-20.95,33.41-39.31,54.17-54.57,13.98-10.28,28.97-19.04,44.79-26.2,2.67-1.21,5.36,1.7,3.9,4.24-22.83,39.67-34.76,84.26-34.72,130.49.03,27.49,4.49,55.19,13,81.43Z"/>
      <path class="cls-1" d="m544.1,473.81c-10.67,1.84-21.53,2.77-32.37,2.77-13.21,0-26.44-1.39-39.35-4.12-19.53-4.13-38.15-11.26-55.36-21.19-11.08-6.39-21.46-13.9-31.02-22.41-1.66-1.48-.47-4.23,1.73-4,34.49,3.58,69.02-1.9,100.99-16.18,19-8.48,36.79-20.09,52.31-34.05,4.19-3.77,10.85-1.59,12,3.93,1.27,6.13,2.24,12.32,2.91,18.53,1.4,13.19,1.42,26.56.04,39.72-1.12,10.76-3.19,21.45-6.15,31.88-.76,2.67-2.99,4.68-5.73,5.15Z"/>
      <path class="cls-1" d="m461.43,581.55c-5.5,3.13-11.16,5.99-16.95,8.56-12.03,5.33-24.66,9.43-37.54,12.17-.12.03-.26.05-.39.08-21.4,4.51-42.89-7.44-50.44-27.78-.21-.56-.39-1.12-.58-1.69-.04-.11-.07-.23-.12-.35-4.07-12.56-6.85-25.57-8.24-38.7-2.06-19.49-1.11-39.06,2.84-58.17,2.66-12.87,6.65-25.41,11.93-37.46.89-2.04,3.88-1.76,4.34.41,7.25,33.9,23.14,65.05,46.59,91.05,14.01,15.53,30.31,28.71,48.42,39.17l.11.06c1.15.66,2.02,1.57,2.63,2.59,1.97,3.31,1.1,7.92-2.62,10.04Z"/>
      <path class="cls-1" d="m531.59,511.71c-6.64,11.5-14.46,22.28-23.25,32.07-5.03,5.59-10.39,10.89-16.06,15.84-2.48,2.18-5.03,4.3-7.63,6.34-2.16,1.7-5.11,2.02-7.6.83-.03-.02-.06-.03-.09-.04-3.74-1.84-7.43-3.81-11.03-5.89-17.27-9.97-32.82-22.55-46.17-37.36-13.13-14.55-23.87-30.95-31.91-48.74-3.19-7.07-5.94-14.32-8.24-21.72-1.59-5.13-2.96-10.34-4.11-15.6-.48-2.17,2.1-3.71,3.75-2.22,10.21,9.15,21.3,17.2,33.15,24.05,18.05,10.42,37.59,17.9,58.06,22.23,20.35,4.31,41.57,5.37,62.34,3.19,5.58-.58,9.74,5.07,7.42,10.17-2.59,5.75-5.48,11.37-8.65,16.85Z"/>
      <path class="cls-1" d="m543.74,359.21c-7.54,7.75-15.77,14.88-24.54,21.23-10.68,7.76-22.2,14.41-34.24,19.79-17.9,7.99-36.8,13.13-56.2,15.28-13.07,1.44-26.22,1.51-39.31.22-2.22-.22-2.88-3.15-.95-4.26,30-17.38,54.72-42.12,72.2-72.46,10.39-18.03,17.96-37.9,22.31-58.34.58-2.72,2.51-4.64,4.82-5.41,2.33-.79,5.05-.41,7.14,1.48,11.33,10.26,21.31,21.81,29.84,34.56,2.38,3.55,4.65,7.2,6.8,10.93,5.4,9.38,10.01,19.25,13.75,29.44.96,2.61.33,5.55-1.62,7.54Z"/>
    </g>
  </g>
</svg>