<?xml version="1.0" encoding="UTF-8"?>
<svg id="Layer_2" data-name="Layer 2" xmlns="http://www.w3.org/2000/svg" viewBox="0 0 2035.15 2221.71">
  <defs>
    <style>
      .cls-1 {
        opacity: 0;
      }

      .cls-2 {
        fill: #f7f7f7;
      }
    </style>
  </defs>
  <g id="Layer_1-2" data-name="Layer 1">
    <g>
      <rect class="cls-1" width="2035.15" height="2221.71"/>
      <g>
        <path class="cls-2" d="m1126.38,370.69c-2.08-.03-4.12-.03-6.16-.03h-3.91c-145.49.78-227.88,168.02-139.7,283.73,64.36,84.47,110.44,183.61,132.39,291.49,2.76,13.54,21.95,13.54,24.71,0,21.95-107.95,68.07-207.12,132.49-291.59,88.14-115.64,5.58-282.37-139.81-283.59Zm85.66,242.31c-32.87,43.15-61.24,89.81-84.58,138.83-2.45,5.14-9.79,5.14-12.24,0-23.3-48.98-51.64-95.57-84.48-138.69-25.42-33.32-29.47-75.79-10.89-113.6,18.65-37.84,54.83-60.58,96.82-60.82h3.54c1.87,0,3.74,0,5.62.03,42.2.34,78.51,23.24,97.16,61.29,18.41,37.61,14.33,79.84-10.96,112.95Z"/>
        <path class="cls-2" d="m1184.99,592.37c-22.27,29.21-42.56,59.96-60.7,91.94-1.3,2.3-4.57,2.3-5.87,0-18.11-31.92-38.36-62.63-60.6-91.81-25.08-32.91-13.54-65.48-7.39-77.93,6.13-12.49,24.91-41.59,66.43-41.83h3.37c1.77,0,3.54,0,5.31.03,41.86.34,60.75,29.64,66.91,42.23,6.06,12.35,17.46,44.68-7.45,77.36Z"/>
        <path class="cls-2" d="m1072.81,1052.66c-34.41-38.08-72.15-72.46-112.85-102.81-68.2-50.88-144.64-90.42-227.24-117.17-78.79-25.52-160.77-38.49-243.61-38.49h-.51c-5.1,0-9.77-1.26-13.78-3.44-8.37-4.53-14.02-13.07-15.04-22.39-.65-5.75.48-11.81,3.78-17.46,12.66-21.61,26.41-42.64,41.18-62.89,30.7-42.13,65.89-81.2,104.65-116.12.37-.34.78-.68,1.16-1.02,7.9-7.08,16.3-13.34,25.08-18.72,62.99-38.8,145.35-33.93,203.48,14.57,1.63,1.36,3.23,2.72,4.8,4.15.34.31.72.65,1.09.99,38.83,34.99,74.12,74.16,104.85,116.39,24.91,34.17,46.79,70.24,65.44,107.85,15.62,31.41,29,63.88,40.02,97.3,16.37,49.42,27.46,100.29,33.22,152.09.99,8.75-9.8,13.71-15.72,7.18Z"/>
        <path class="cls-2" d="m1043.65,1075.01c5.93,6.5.14,16.87-8.47,15.05-53.13-11.17-107.12-16.83-161.33-16.83-82.56,0-164.38,13.03-243.16,38.73-78.34,25.52-153.25,63.91-220.12,112.48-18,13.07-43.43,1.94-45.64-20.18-2.45-24.84-3.68-49.86-3.68-74.91,0-52.58,5.45-105.06,16.23-155.97,6.06-28.66,13.82-57,23.24-84.81,4.36-12.86,9.05-25.59,14.09-38.18,4.12-10.24,13.78-17.22,24.78-17.94h.14c16.47-1.09,32.94-1.63,49.38-1.63,78.99,0,157.16,12.32,232.34,36.69,73.85,23.89,143.11,58.88,205.9,103.97,42.28,30.35,81.2,65.02,116.31,103.54Z"/>
        <path class="cls-2" d="m1024.62,1125.26c8.62,1.78,10.01,13.58,1.98,17.16-125.37,56.01-232.95,143.21-314.3,255.48-48.4,66.7-86.41,141.71-111.97,220.33-6.94,21.24-34.07,26.95-48.94,10.28-16.51-18.51-32.09-37.81-46.66-57.79-30.94-42.47-57.45-88.28-78.79-136.13-17.46-39.1-31.55-79.87-42.03-121.46-2.69-10.69.99-21.98,9.46-29.03,32.94-27.43,68.34-52.1,105.53-73.54,45.26-26.14,93.42-47.61,143.11-63.78,75.14-24.5,153.11-36.93,231.83-36.93,50.65,0,101.09,5.15,150.77,15.4Z"/>
        <path class="cls-2" d="m985.34,1825.56c3.5,10.75.44,21.37-6.26,28.62-6.47,6.98-16.3,10.79-26.95,8.51-57.21-12.32-112.48-31.31-165.33-56.77-17.05-8.2-33.9-17.12-50.44-26.68-37.06-21.44-72.42-46.18-105.43-73.71-8.47-7.08-12.12-18.38-9.43-29.06,10.55-41.52,24.67-82.26,42.13-121.43,21.3-47.75,47.61-93.39,78.27-135.65,45.57-62.86,100.23-117.92,162.51-163.7,41.93-30.83,86.91-57.13,134.38-78.6,8.02-3.63,16.09,5.09,11.7,12.72-68.5,119.01-104.27,252.79-104.15,391.47.1,82.46,13.48,165.57,39,244.29Z"/>
        <g>
          <path class="cls-2" d="m1635.21,1428.91c-32,5.52-64.58,8.32-97.1,8.3-39.62,0-79.33-4.18-118.04-12.36-58.58-12.39-114.46-33.78-166.07-63.58-33.23-19.18-64.37-41.69-93.07-67.23-4.98-4.43-1.42-12.7,5.2-12.01,103.47,10.74,207.07-5.71,302.96-48.54,56.99-25.44,110.38-60.26,156.92-102.16,12.58-11.31,32.56-4.78,36,11.79,3.82,18.4,6.73,36.96,8.72,55.58,4.21,39.58,4.25,79.67.13,119.15-3.37,32.29-9.56,64.35-18.45,95.63-2.27,8.01-8.96,14.03-17.19,15.44Z"/>
          <path class="cls-2" d="m1387.22,1752.13c-16.5,9.4-33.48,17.97-50.85,25.68-36.08,15.99-73.99,28.28-112.62,36.52-.37.08-.77.15-1.16.25-64.2,13.54-128.66-22.33-151.33-83.35-.62-1.67-1.18-3.36-1.75-5.06-.13-.34-.22-.69-.35-1.04-12.21-37.68-20.54-76.72-24.73-116.09-6.19-58.47-3.34-117.19,8.53-174.52,7.98-38.62,19.96-76.22,35.8-112.37,2.68-6.11,11.64-5.29,13.03,1.23,21.74,101.71,69.42,195.16,139.78,273.15,42.04,46.6,90.93,86.14,145.27,117.51l.33.19c3.44,1.99,6.07,4.7,7.9,7.77,5.91,9.93,3.31,23.76-7.86,30.11Z"/>
          <path class="cls-2" d="m1597.67,1542.6c-19.92,34.49-43.39,66.85-69.74,96.2-15.08,16.78-31.18,32.66-48.19,47.52-7.44,6.54-15.1,12.9-22.89,19.02-6.49,5.1-15.34,6.06-22.79,2.5-.09-.05-.19-.08-.28-.13-11.22-5.52-22.28-11.43-33.08-17.67-51.82-29.92-98.45-67.64-138.52-112.09-39.4-43.65-71.61-92.84-95.72-146.21-9.57-21.21-17.83-42.95-24.72-65.15-4.77-15.39-8.88-31.01-12.34-46.81-1.43-6.51,6.3-11.12,11.26-6.66,30.62,27.46,63.9,51.61,99.46,72.14,54.16,31.27,112.77,53.71,174.19,66.69,61.06,12.93,124.71,16.12,187.01,9.58,16.75-1.73,29.21,15.2,22.27,30.51-7.78,17.24-16.45,34.11-25.94,50.55Z"/>
          <path class="cls-2" d="m1634.14,1085.11c-22.63,23.26-47.32,44.63-73.62,63.68-32.04,23.27-66.61,43.23-102.72,59.38-53.69,23.96-110.4,39.38-168.61,45.84-39.21,4.33-78.65,4.54-117.93.65-6.65-.65-8.63-9.45-2.86-12.78,90-52.14,164.16-126.35,216.6-217.38,31.18-54.1,53.89-113.71,66.93-175.01,1.74-8.17,7.54-13.93,14.47-16.24,6.99-2.36,15.15-1.23,21.42,4.45,33.99,30.79,63.94,65.44,89.53,103.67,7.13,10.64,13.94,21.59,20.39,32.79,16.2,28.14,30.03,57.76,41.26,88.33,2.87,7.82.99,16.65-4.85,22.62Z"/>
        </g>
      </g>
    </g>
  </g>
</svg>